<?xml version="1.0" standalone="no"?>
<!DOCTYPE svg PUBLIC "-//W3C//DTD SVG 1.1//EN" "http://www.w3.org/Graphics/SVG/1.1/DTD/svg11.dtd" >
<!--
2013-9-30: Created.
-->
<svg>
<metadata>
Created by iconfont
</metadata>
<defs>

<font id="iconfont" horiz-adv-x="1024" >
  <font-face
    font-family="iconfont"
    font-weight="500"
    font-stretch="normal"
    units-per-em="1024"
    ascent="896"
    descent="-128"
  />
    <missing-glyph />
    
    <glyph glyph-name="shouyetubiao-10" unicode="&#58914;" d="M507.77-66.27c-0.87 0-1.77 0-2.69 0.11a33.67 33.67 0 0 0-28.57 21.06l-51.44 99.55H137.52A78.69 78.69 0 0 0 58.93 133V746.47A78.68 78.68 0 0 0 137.52 825h741a78.68 78.68 0 0 0 78.59-78.58V133a78.69 78.69 0 0 0-78.59-78.59H601.67l-65-104.36a33.67 33.67 0 0 0-28.9-16.32z m-370.25 824a11.37 11.37 0 0 1-11.23-11.22V133a11.37 11.37 0 0 1 11.23-11.23h310.36a33.66 33.66 0 0 0 31.26-21.17l28.69-71.6 45.89 76.49a33.62 33.62 0 0 0 28.88 16.36h295.88A11.37 11.37 0 0 1 889.71 133V746.47a11.37 11.37 0 0 1-11.23 11.22zM252.65 442.02m-63.13 0a63.13 63.13 0 1 1 126.26 0 63.13 63.13 0 1 1-126.26 0ZM507.46 442.02m-63.13 0a63.13 63.13 0 1 1 126.26 0 63.13 63.13 0 1 1-126.26 0ZM764.1 442.02m-63.13 0a63.13 63.13 0 1 1 126.26 0 63.13 63.13 0 1 1-126.26 0Z"  horiz-adv-x="1024" />

    
    <glyph glyph-name="che" unicode="&#58993;" d="M787.2 640H704v64c0 36.267-27.733 64-64 64H64c-36.267 0-64-27.733-64-64v-554.667c0-36.266 27.733-64 64-64h66.133C140.8 36.267 183.467 0 234.667 0s93.866 36.267 104.533 85.333h302.933C652.8 36.267 695.467 0 746.667 0s93.866 36.267 104.533 85.333H960c36.267 0 64 27.734 64 64V454.4c0 12.8-6.4 25.6-17.067 34.133L825.6 627.2c-10.667 8.533-25.6 12.8-38.4 12.8zM42.667 704c0 12.8 8.533 21.333 21.333 21.333h576c12.8 0 21.333-8.533 21.333-21.333v-362.667H42.667V704z m192-661.333c-36.267 0-64 27.733-64 64s27.733 64 64 64 64-27.734 64-64-27.734-64-64-64z m512 0c-36.267 0-64 27.733-64 64s27.733 64 64 64 64-27.734 64-64-27.734-64-64-64z m234.666 106.666c0-12.8-8.533-21.333-21.333-21.333H851.2c-10.667 49.067-53.333 85.333-104.533 85.333S652.8 177.067 642.133 128H339.2c-10.667 49.067-53.333 85.333-104.533 85.333S140.8 177.067 130.133 128H64c-12.8 0-21.333 8.533-21.333 21.333V298.667h938.666v-149.334z m0 192H704v256h64c14.933 0 27.733-4.266 38.4-12.8l157.867-121.6c10.666-8.533 17.066-21.333 17.066-34.133v-87.467z"  horiz-adv-x="1024" />

    
    <glyph glyph-name="evaluate" unicode="&#59076;" d="M490.816 197.867a21.355 21.355 0 0 0-4.907-2.987l-176.938-78.443c-50.134-19.797-89.11 18.774-70.55 69.803l0.918 2.176 84.138 170.09a21.333 21.333 0 0 0 3.435 5.014 21.564 21.564 0 0 0 3.264 4.16l422.379 422.4a64 64 0 0 0 90.496 0l75.434-75.435a64 64 0 0 0 0-90.517L496.107 201.749a21.333 21.333 0 0 0-5.291-3.882zM360.576 337.28l-82.432-166.656c-5.461-15.83-0.235-20.587 14.336-14.827l172.928 76.651L360.576 337.28z m135.53-75.179l316.8 316.779-105.6 105.6-316.8-316.8 105.6-105.6z m346.945 346.944l45.269 45.27a21.333 21.333 0 0 1 0 30.165l-75.435 75.413a21.333 21.333 0 0 1-30.165 0l-45.248-45.226 105.6-105.6zM896 441.728a21.333 21.333 0 0 0 42.667 0v-335.061a149.333 149.333 0 0 0-149.334-149.334H234.667A149.333 149.333 0 0 0 85.333 106.667V661.333A149.333 149.333 0 0 0 234.667 810.667h338.496a21.333 21.333 0 1 0 0-42.667H234.667A106.667 106.667 0 0 1 128 661.333v-554.666A106.667 106.667 0 0 1 234.667 0h554.666A106.667 106.667 0 0 1 896 106.667V441.728z"  horiz-adv-x="1024" />

    
    <glyph glyph-name="setting" unicode="&#58882;" d="M417.44192885-125.30128155c-2.87315555 0-5.87123024 0.37475882-8.74438441 1.24919836-86.06972787 23.85967838-165.51870649 69.58031637-229.8523925 132.41496575-6.74566841 6.62074787-10.24342243 15.86481162-9.74374309 25.2337959 0.49967935 9.36898289 5.12171122 18.23828782 12.61689727 23.98459751 41.09860751 31.9794629 52.4663064 89.81732021 26.48299285 134.66352142-26.10823405 44.97112035-81.82245482 63.95892719-129.91657038 44.72128068-8.74438439-3.62267318-18.73796716-3.24791436-27.10759137 1.12427784-8.36962558 4.24727306-14.61561463 11.99229877-16.86417029 21.11144199-10.99294006 43.34716318-16.4894101 87.8186042-16.48941013 132.2900452 0 44.34652187 5.49647004 88.81796288 16.48941013 132.29004523 2.3734762 9.11914322 8.49454473 16.8641703 16.86417029 21.2363625 8.36962558 4.3721922 18.23828782 4.74695102 27.10759137 1.12427783 47.96919504-19.48748479 103.68341583-0.37475882 129.79164986 44.59636155 25.98331353 44.72128069 14.61561463 102.6840585-26.48299286 134.66352141-7.49518605 5.87123024-11.99229877 14.61561463-12.61689727 23.98459755-0.49967935 9.36898289 2.99807469 18.61304663 9.7437431 25.23379586 64.33368603 62.83464799 143.90758516 108.68020788 229.85239249 132.41496574 9.24406374 2.3734762 18.8628863 0.87443817 26.73283256-4.24727304 7.86994623-5.24663037 13.1165766-13.49133541 14.36577496-22.86031969 6.99550807-51.34202857 51.46694909-90.06715987 103.30865699-90.06715989 37.10117412 0 89.94224073 55.21454279 103.68341581 79.44897862-0.99935869 4.99679069-0.74951902 10.36834158 0.74951902 15.61497196 5.24663037 17.23892912 23.4849182 26.85775307 40.59892817 21.98588153 0 0 0 0 0.12491913 0l0 0 0 0c89.69240105-26.73283254 166.76790484-71.32919409 229.1028735-132.16512606 6.74566841-6.62074787 10.36834158-15.86481162 9.86866223-25.23379591-0.49967935-9.36898289-5.12171122-18.11336729-12.61689725-23.98459751-40.97368699-31.9794629-52.4663064-89.81732021-26.48299289-134.66352143 26.10823405-44.97112035 81.94737534-64.20876687 129.91657041-44.59636154 8.74438439 3.62267318 18.61304663 3.24791436 27.10759135-1.12427782 8.49454473-4.24727306 14.61561463-11.99229877 16.86417033-21.23636252 10.99294006-43.47208231 16.4894101-87.94352473 16.48941011-132.16512607s-5.62139056-88.69304236-16.48941011-132.29004522c-2.3734762-9.11914322-8.49454473-16.8641703-16.86417033-21.11144199-8.49454473-4.3721922-18.23828782-4.74695102-27.10759135-1.12427781-47.96919504 19.36256565-103.80833635 0.24983967-129.91657041-44.7212807-25.98331353-44.72128069-14.61561463-102.6840585 26.48299289-134.6635214 7.49518605-5.74630971 11.99229877-14.49069411 12.61689725-23.98459754s-2.99807469-18.61304663-9.86866223-25.23379589c-64.20876687-62.70972883-143.65774548-108.55528736-229.85239252-132.41496574-9.11914322-2.49839535-18.8628863-0.99935869-26.60791336 4.24727305-7.86994623 5.24663037-13.1165766 13.61625595-14.49069412 22.8603197-6.99550807 51.34202857-51.34202857 90.06715987-103.30865701 90.06715987-51.8417079 0-96.31314892-38.72513131-103.30865699-90.06715987-1.24919837-9.36898289-6.49582873-17.61368932-14.36577496-22.8603197C430.05882748-123.55240384000001 423.81283842-125.30128155 417.44192885-125.30128155zM249.29990649 32.59731837000004c43.09732351-36.3516551 92.44063606-64.83336537 145.28170267-83.69625166 24.48427687 64.45860516 87.19400571 109.55464606 158.64811894 109.55464605 71.45411324 0 134.16384207-45.09603952 158.64811893-109.55464605 52.96598574 18.8628863 102.18437916 47.34459655 145.28170266 83.69625166-43.59700285 53.71550476-51.34202857 130.54116889-15.49005279 192.37645956 35.72705661 61.71037014 106.18181116 93.06523456 174.13817174 82.69689299 4.99679069 27.73219123 7.37026689 55.83914128 7.37026689 83.69625165 0 27.85711039-2.49839535 55.83914128-7.37026689 83.69625168-67.70651953-10.99294006-138.28619458 20.98652283-174.13817174 82.69689299-35.85197714 61.71037014-28.10695005 138.53603427 15.49005279 192.25153902-42.09796481 35.47721694-91.06651856 63.45924785-146.03122168 83.57133252-27.85711039-45.72063937-95.18887109-109.30480638-157.89859991-109.30480637-71.32919409 0-134.03892291 45.09603952-158.64811894 109.55464605-52.8410666-18.73796716-102.18437916-47.21967602-145.28170267-83.82117081 43.59700285-53.71550476 51.34202857-130.54116889 15.4900528-192.25153905-35.85197714-61.71037014-105.80705233-93.43999475-174.01325122-82.69689296-4.99679069-27.73219123-7.49518605-55.71422076-7.49518603-83.69625167 0-27.98203091 2.49839535-55.96406044 7.49518603-83.69625169 67.83144005 10.74310039 138.28619458-20.98652283 174.13817174-82.82181349C300.51701591 163.26340777999997 292.89690934 86.31282313999998 249.29990649 32.59731837000004zM553.10480894 221.47602388999996c-93.56491391 0-169.76597953 76.20106563-169.76597953 169.89089868s76.20106563 169.76597953 169.76597953 169.76597955c93.56491391 0 169.76597953-76.20106563 169.76597954-169.76597955S646.66972285 221.47602388999996 553.10480894 221.47602388999996zM553.10480894 495.67493826c-57.58801762 0-104.43293485-46.84491723-104.43293482-104.43293483s46.84491723-104.43293485 104.43293482-104.43293483c57.58801762 0 104.30801568 46.84491723 104.30801568 104.43293483S610.69282656 495.67493826 553.10480894 495.67493826z"  horiz-adv-x="1105" />

    
    <glyph glyph-name="backicon1" unicode="&#59703;" d="M721.226 38.284l-330.925 336.576 328.476 341.301c8.349 8.349 8.124 22.074-0.5 30.65l-59.175 59.175c-8.6 8.574-22.325 8.825-30.675 0.474l-334.326-347.4c-4.425-0.775-8.751-2.499-12.174-5.95l-59.775-59.75c-8.7-8.675-8.9-22.524-0.5-30.925l408.351-415.35c8.425-8.425 22.275-8.2 30.95 0.474l59.775 59.8c8.65 8.65 8.9 22.524 0.5 30.925z"  horiz-adv-x="1024" />

    
    <glyph glyph-name="wenjianbao" unicode="&#59114;" d="M301.4-43.2c0.2 0 0.3 0.1 0.5 0.1l0-0.1L317-43.2l0 0 0 0c12.9 0 23.4 10.5 23.4 23.4 0 12.9-10.5 23.4-23.4 23.4l0 0 0 0-15.1 0 0-0.1c-0.2 0-0.3 0.1-0.5 0.1-12.9 0-23.4-10.5-23.4-23.4C278-32.7 288.5-43.2 301.4-43.2zM192.9-43.5c2.5 0 4.8 0.5 7.1 0.9l0-0.6 15.6 0 7.8 0 0 0 0 0c12.9 0 23.4 10.5 23.4 23.4 0 10.1-6.5 18.6-15.6 21.8-0.1 0.6-0.4 1-0.5 1.6L200 3.6l0 30.2 0 16.6 0 99c0.1 0.8 0.5 1.6 0.5 2.4 0 12.9-10.5 23.4-23.4 23.4-12.9 0-23.4-10.5-23.4-23.4 0-0.2 0.1-0.3 0.1-0.5l-0.6 0L153.2-12l1.4 0C158.1-29.9 173.9-43.5 192.9-43.5zM855.2 674.4 730.4 674.4 730.4 729c0 12.9-10.5 23.4-23.4 23.4l-15.6 0C678.5 752.4 668 741.9 668 729l0-54.6L356 674.4 356 729c0 12.9-10.5 23.4-23.4 23.4L317 752.4c-12.9 0-23.4-10.5-23.4-23.4l0-54.6L168.8 674.4C99.9 674.4 44 618.5 44 549.6l0-577.2c0-68.9 55.9-124.8 124.8-124.8l686.4 0c68.9 0 124.8 55.9 124.8 124.8L980 549.6C980 618.5 924.1 674.4 855.2 674.4zM917.6-27.6c0-34.5-27.9-62.4-62.4-62.4L168.8-90c-34.5 0-62.4 27.9-62.4 62.4L106.4 409.2l811.2 0L917.6-27.6zM917.6 471.6 106.4 471.6l0 78c0 34.5 27.9 62.4 62.4 62.4l124.8 0 0-54.6c0-12.9 10.5-23.4 23.4-23.4l15.6 0c12.9 0 23.4 10.5 23.4 23.4L356 612l312 0 0-54.6c0-12.9 10.5-23.4 23.4-23.4L707 534c12.9 0 23.4 10.5 23.4 23.4L730.4 612l124.8 0c34.5 0 62.4-27.9 62.4-62.4L917.6 471.6z"  horiz-adv-x="1024" />

    
    <glyph glyph-name="baby" unicode="&#59008;" d="M608 281.6c-38.4-51.2-153.6-51.2-185.6 0C409.6 294.4 384 294.4 377.6 288 364.8 281.6 364.8 256 371.2 243.2c25.6-32 83.2-64 140.8-64 57.6 0 102.4 19.2 140.8 64 6.4 12.8 6.4 25.6-6.4 38.4C640 294.4 614.4 294.4 608 281.6zM876.8 486.4C832 646.4 684.8 761.6 512 761.6S192 646.4 147.2 486.4C102.4 473.6 64 435.2 64 384s38.4-89.6 83.2-102.4c44.8-160 192-281.6 364.8-281.6s320 115.2 364.8 281.6C921.6 294.4 960 332.8 960 384S921.6 473.6 876.8 486.4zM864 345.6l-38.4 6.4L819.2 320c-32-147.2-160-256-307.2-256s-281.6 108.8-307.2 256L198.4 352l-32 0c0 0-6.4 0-6.4 0C147.2 345.6 128 364.8 128 384c0 19.2 19.2 38.4 32 38.4l38.4-6.4L204.8 448c19.2 96 76.8 172.8 160 211.2C384 601.6 428.8 505.6 544 505.6c12.8 0 32 12.8 32 25.6 0 0 6.4 44.8 57.6 64 19.2 6.4 25.6 25.6 19.2 38.4C640 652.8 627.2 659.2 608 652.8 556.8 633.6 531.2 595.2 518.4 569.6 460.8 582.4 435.2 646.4 422.4 684.8 448 691.2 480 697.6 512 697.6c147.2 0 281.6-108.8 307.2-256l6.4-25.6 38.4 6.4C883.2 422.4 896 403.2 896 384 896 364.8 876.8 345.6 864 345.6zM377.6 416m-38.4 0a0.6 0.6 0 1 0 76.8 0 0.6 0.6 0 1 0-76.8 0ZM646.4 416m-38.4 0a0.6 0.6 0 1 0 76.8 0 0.6 0.6 0 1 0-76.8 0Z"  horiz-adv-x="1024" />

    
    <glyph glyph-name="rentou" unicode="&#58956;" d="M651.374304 279.667929c78.532611 47.322795 131.060965 133.418662 131.060965 231.79011 0 149.357679-121.077589 270.435269-270.435269 270.435269s-270.435269-121.077589-270.435269-270.435269c0-98.371448 52.528354-184.467315 131.060965-231.79011C174.367283 219.882288 29.974685 35.860111 29.974685-181.893308l964.05063 0C994.025315 35.860111 849.632717 219.882288 651.374304 279.667929z"  horiz-adv-x="1024" />

    
    <glyph glyph-name="xin" unicode="&#59153;" d="M769.28 768C672.64 768 588.16 712.96 544 632.32 500.48 712.96 415.36 768 318.08 768c-140.8 0-254.72-114.56-254.72-256 0-67.2 25.6-128 67.84-174.08l391.04-392.96C528.64-60.8 536.32-64 544-64c7.68 0 15.36 3.2 21.76 8.96l391.04 392.96C998.4 383.36 1024 444.8 1024 512 1024 653.44 910.08 768 769.28 768zM908.16 379.52 544 9.6 179.84 379.52C147.2 414.08 127.36 460.8 127.36 512c0 106.24 85.76 192 190.72 192C403.2 704 476.8 647.68 502.4 570.24 508.8 553.6 525.44 541.44 544 541.44c19.2 0 35.2 11.52 42.24 28.16l0 0C611.2 647.68 684.16 704 769.28 704c105.6 0 190.72-85.76 190.72-192C960.64 460.8 940.8 414.08 908.16 379.52z"  horiz-adv-x="1024" />

    
    <glyph glyph-name="home" unicode="&#59195;" d="M836.576 329.152l0-274.272q0-14.848-10.848-25.728t-25.728-10.848l-219.424 0 0 219.424-146.272 0 0-219.424-219.424 0q-14.848 0-25.728 10.848t-10.848 25.728l0 274.272q0 0.576 0.288 1.728t0.288 1.728l328.576 270.848 328.576-270.848q0.576-1.152 0.576-3.424zM964 368.576l-35.424-42.272q-4.576-5.152-12-6.272l-1.728 0q-7.424 0-12 4l-395.424 329.728-395.424-329.728q-6.848-4.576-13.728-4-7.424 1.152-12 6.272l-35.424 42.272q-4.576 5.728-4 13.44t6.272 12.288l410.848 342.272q18.272 14.848 43.424 14.848t43.424-14.848l139.424-116.576 0 111.424q0 8 5.152 13.152t13.152 5.152l109.728 0q8 0 13.152-5.152t5.152-13.152l0-233.152 125.152-104q5.728-4.576 6.272-12.288t-4-13.44z"  horiz-adv-x="1024" />

    
    <glyph glyph-name="quan" unicode="&#59201;" d="M510.959 825.666c-243.334 0-440.596-197.245-440.596-440.597 0-243.319 197.264-440.596 440.596-440.596 243.317 0 440.597 197.275 440.597 440.596-0.001 243.353-197.28 440.597-440.597 440.597v0zM510.959 12.171c-205.936 0-372.902 166.943-372.902 372.897 0 205.961 166.965 372.902 372.902 372.902 205.959 0 372.901-166.943 372.901-372.902 0-205.953-166.943-372.897-372.901-372.897v0zM510.959 12.171z"  horiz-adv-x="1024" />

    
    <glyph glyph-name="gouwuche" unicode="&#58992;" d="M395.995963 297.7578l389.258515 0c18.340717 0 36.718273 11.0558 43.682895 27.084868L957.36844 618.875378c4.679579 10.749832 3.850701 23.382547-2.201132 32.621978-5.821589 8.871041-15.45704 14.649652-26.438139 14.649652L313.645396 666.147008l-11.873422 52.837392c-6.309706 28.436656-34.56319 50.516534-64.316841 50.516534L82.492806 769.500934c-10.41828 0-18.865673-8.512884-18.865673-18.931165s8.447393-18.931165 18.865673-18.931165l154.961304 0c12.141528 0 24.981974-10.464329 27.488051-21.767769l120.088052-536.77936c-37.82549-10.228969-65.775053-44.895513-65.775053-85.910649 0-49.036833 39.895639-89.004103 88.932472-89.004103s88.932472 40.297798 88.932472 89.334631c0 18.178011-5.504364 31.166837-14.902408 49.586348l248.122077 0c-9.398044-18.419512-14.902408-31.444153-14.902408-49.622164 0-49.036833 39.895639-89.151459 88.932472-89.151459s88.932472 39.786145 88.932472 88.822978c0 49.037856-39.895639 89.381703-88.932472 89.381703-6.418176 0-12.666484-1.568728-18.701944-1.568728L426.8906 174.960033c-1.181919 0-2.388397 0.51063-3.586688 0.717338L395.995963 297.7578zM919.766031 628.285702 794.346553 340.743824c-0.819668-1.87879-5.40715-5.124717-9.092076-5.124717L387.549593 335.619106l-65.457828 292.665573L919.766031 628.284679zM459.389782 87.476563c0-28.27702-22.924105-51.41909-51.201126-51.41909-28.27702 0-51.201126 22.813588-51.201126 51.090609 0 27.081799 21.042245 49.579185 47.660486 51.405787 2.435469-1.147126 5.126764-1.455141 7.997138-1.455141l9.660011 0C443.708638 127.888971 459.389782 110.850923 459.389782 87.476563zM855.571986 87.038588c0-28.27702-22.924105-51.200102-51.201126-51.200102s-51.201126 23.361057-51.201126 51.638077c0 23.37436 15.681144 40.412408 37.083593 49.622164l9.141194 0c2.888793 0 5.594415 0.26299 8.042163 1.424442C834.279031 136.927835 855.571986 114.280022 855.571986 87.038588z"  horiz-adv-x="1024" />

    
    <glyph glyph-name="iconnvhai" unicode="&#59276;" d="M389.415269 89.767522c-8.94142 5.728475-11.465013 17.416217-5.961283 26.81015 5.505746 8.479837 17.422264 11.459974 26.586413 5.961283 14.669895-9.397965 30.707408-16.505144 47.439312-21.549306 16.271329-4.810347 33.688553-7.33394 51.566354-7.33394 18.333337 0 35.294018 2.523592 51.793115 7.33394 16.500104 5.044162 32.546688 12.151342 47.673127 21.549306 8.707605 5.498691 20.63017 2.518554 26.352598-5.961283 5.500707-9.398973 2.980138-21.081675-5.955235-26.81015-17.883848-11.231198-36.902506-20.168586-57.527637-26.129869-20.168586-5.955235-41.027532-8.708612-62.335968-8.708612-21.092761 0-42.16839 2.753377-62.337984 8.708612C426.540504 69.592889 407.289039 78.536324 389.415269 89.767522L389.415269 89.767522 389.415269 89.767522zM510.882323 879.540209 510.882323 879.540209c57.749358 0 107.262773-43.31227 115.965339-100.378323 5.960275 1.830209 11.917526 2.518554 18.106577 2.518554 20.858946 0 39.653867-8.936381 53.400595-22.459371 6.873364-7.10718 12.829607-15.588023 16.954633-25.212748 5.505746 1.60748 11.466021 2.980138 17.655071 2.980138 18.562114 0 35.521786-8.252068 47.439312-19.941826 12.139248-12.378102 19.712041-29.104967 19.712041-47.899888 0-12.151342-3.208914-24.061813-9.169188-33.92136 5.038115-5.049201 9.625733-10.086309 13.525007-14.208311 67.146314-73.341413 96.029561-145.30513 104.510404-222.310992 8.479837-74.259541-2.519562-150.57706-15.354208-236.524343-7.11121-46.528239-13.295222-92.593886-13.751767-133.383572 0-39.187244 4.587618-75.860974 19.707002-107.719318 7.791492-16.04356 0.918128-35.06121-15.125432-42.635012-3.441721-1.830209-6.416819-2.513515-9.625733-2.975099-29.794319-4.810347-56.380733-4.353803-80.448592 0-26.357637 5.044162-49.507368 15.580968-67.836675 30.47964-22.003835 17.193488-37.357035 41.256308-44.236446 68.064443l-3.202866-1.367618c-51.570385-29.562519-110.248957-44.69299-169.600757-44.69299-60.050222 0-119.635836 16.04356-171.885495 46.066655l-0.456544 0c-23.149732-87.08814-114.591674-111.384776-193.661562-98.087538-17.650033 2.975099-29.561512 19.480242-26.814182 36.663652 0.690359 2.980138 1.840288 5.960275 2.752369 8.479837 14.897664 31.858344 19.941826 68.532074 19.941826 107.719318-0.456544 40.793716-6.645596 86.860373-13.525007 133.383572-13.290183 86.403827-21.998795 162.950122-11.916518 237.435416 10.086309 76.551334 40.560909 148.513035 107.257734 221.388833l1.835249 1.606472 9.169188 9.854509c-6.879411 10.538822-11.233214 23.149732-11.233214 36.67373 0 18.789882 7.567755 35.521786 19.945857 47.901904 11.912487 11.687742 28.878206 19.940818 47.206505 19.940818 6.422866 0 12.37911-1.373665 18.340392-2.980138 3.436682 9.625733 9.397965 18.105569 16.504136 25.212748l1.373665 1.373665c13.29623 12.605871 31.629567 21.081675 51.800169 21.081675 6.415811 0 12.378102-0.690359 18.333337-2.519562C402.929189 836.221891 452.437566 879.540209 510.882323 879.540209L510.882323 879.540209 510.882323 879.540209zM627.993559 633.623948 627.993559 633.623948c-77.007879 14.43608-157.901928 14.43608-234.912831 0-47.673127-8.94142-88.461805-17.644994-122.838703-54.540445l-1.378704-1.606472c-56.837277-62.337984-82.50657-122.840718-91.442951-186.327623-8.942427-66.008481-0.227769-137.970182 11.921557-219.104094 7.562716-48.356433 13.979536-96.491144 14.441119-143.013336 0-32.086112-2.752369-63.026328-10.543861-92.366117 57.293822 2.753377 113.220025 58.449796 74.25551 116.888506-77.462408 117.117283-23.150739 295.191829-17.650033 312.613085 0.227769 1.374673 0.688344 2.519562 1.606472 3.670497 3.892219 9.854509 15.581976 13.751767 25.207709 9.625733 6.872356-2.980138 13.295222-5.500707 19.257513-8.252068 54.545484-20.63017 102.447388-19.712041 142.096216-2.290785l0 0c39.421059 17.643986 71.506164 52.253691 93.966543 100.155595l0 0.918128c2.980138 5.727468 5.504738 12.139248 7.790484 19.018658l0.227769 0 0.466623 1.601434c2.513515 6.649626 9.392926 27.046989 9.847454 50.191681 0.228777 10.770622 9.171204 18.789882 19.714057 18.789882s19.023698-8.935373 18.794921-19.480242c-0.461584-25.896054-6.422866-47.904927-10.087317-57.988213 17.644994-44.919751 38.270124-81.132905 66.008481-109.554567 28.87619-29.104967 66.457971-50.414411 118.251086-63.938409 6.877395-2.069064 12.383141-8.0243 13.751767-15.126439 13.29623-71.045588 17.650033-144.385993-15.3532-209.937929-29.105975-58.894247-32.314888-130.401419 45.153566-144.614769 5.961283-1.373665 12.373063-2.296832 19.251466-2.296832-7.796531 29.344829-10.547892 60.280006-10.315085 92.366117 0.22273 46.522192 7.106172 94.650857 13.979536 143.013336 12.383141 81.355634 22.915916 153.779926 15.587015 219.787399-7.10718 63.260144-31.174031 123.762878-88.011308 185.643309C720.815213 616.897084 683.224363 623.537639 627.993559 633.623948L627.993559 633.623948 627.993559 633.623948zM510.882323 840.120156 510.882323 840.120156c-43.548101 0-78.83708-35.065242-78.83708-78.384567l0.456544-5.498691-0.456544 0 0.456544-0.227769 0.456544-5.271931c0.456544-5.498691-0.91712-11.233214-5.038115-16.048599-6.879411-7.556669-19.257513-8.47379-27.047997-1.144889-3.440713 2.980138-6.872356 5.044162-10.542853 6.184012l-0.913089 0.461584c-4.126034 1.830209-8.484875 2.518554-13.295222 2.518554-9.625733 0-18.335353-3.669489-24.751164-9.625733l-0.923168-0.91712c-6.41178-6.650634-10.537814-16.048599-10.537814-26.129869l-0.461584 0c0.461584-5.038115-1.373665-10.310046-4.582578-13.525007-7.3289-8.475805-19.707002-8.930334-27.504541-2.290785-2.518554 2.752369-5.042146 4.126034-7.785445 5.270923l-1.150935 0.228777c-2.975099 1.373665-6.645596 2.291793-10.309038 2.291793-7.790484 0-14.664856-3.436682-19.70801-8.480845-5.500707-5.038115-8.712644-12.378102-8.712644-20.397363 0-7.10718 2.752369-13.522991 6.877395-18.333337 3.431643-4.127042 8.241989-7.10718 13.291191-8.714659 33.003232 12.600831 68.525019 22.921963 106.111838 29.566551 81.81621 15.354208 167.98723 15.354208 249.125173 0 37.585811-6.644588 73.341413-16.96572 106.345653-29.566551 5.042146 1.601434 10.081269 4.581571 13.290183 8.714659 4.122003 4.810347 6.645596 11.226159 6.645596 18.333337 0 8.019261-2.980138 15.3532-8.0243 20.397363-5.044162 5.044162-12.378102 8.480845-20.391315 8.480845-3.441721 0-7.11121-0.923168-10.087317-2.291793l-0.231799 0c-2.748338-0.91712-5.957251-2.74733-8.703573-5.498691l0 0c-3.441721-2.753377-8.252068-5.044162-13.295222-4.583586-10.082277 0-18.796937 8.480845-18.796937 19.023698l0 1.374673c0 10.081269-4.353803 19.479234-10.999398 26.129869l0.456544 0-0.456544 0c-6.41178 6.417827-15.581976 10.537814-25.896054 10.537814-4.587618 0-8.937389-0.688344-13.062415-2.518554-4.119987-1.149927-8.0243-3.670497-11.460981-6.650634-3.897258-3.897258-9.620693-5.498691-15.587015-4.810347-10.542853 1.373665-17.876793 10.999398-16.503128 21.776067l0.694391 5.038115 0 0.690359 0.228777 5.498691C589.266889 805.053907 553.961785 840.120156 510.882323 840.120156L510.882323 840.120156 510.882323 840.120156zM740.983799 274.949247 740.983799 274.949247c-52.483474 15.126439-92.132303 38.731708-123.756831 71.045588-24.289581 24.295628-43.552132 53.173835-59.817414 88.466845-25.440517-46.982768-60.734534-81.81621-103.821053-100.839907-48.590248-22.003835-106.802197-22.916924-171.20219 1.373665l-1.373665 0.456544c-22.232611-85.486707-30.484679-181.972812 20.397363-249.347903 46.5232-60.969358 132.470482-93.97259 208.097641-93.97259C698.354834-7.869519 766.88086 119.102272 740.983799 274.949247L740.983799 274.949247 740.983799 274.949247zM400.415674 265.551282 400.415674 265.551282c17.876793 0 32.541648-14.441119 32.541648-32.31892 0-17.878808-14.669895-32.542656-32.541648-32.542656-17.422264 0-32.092159 14.669895-32.092159 32.542656C368.324523 251.115202 382.994418 265.551282 400.415674 265.551282L400.415674 265.551282 400.415674 265.551282zM617.683512 265.551282 617.683512 265.551282c17.872761 0 32.309849-14.441119 32.309849-32.31892 0-17.878808-14.43608-32.542656-32.309849-32.542656-17.872761 0-32.314888 14.669895-32.314888 32.542656C585.363585 251.115202 599.809743 265.551282 617.683512 265.551282L617.683512 265.551282 617.683512 265.551282zM617.683512 265.551282"  horiz-adv-x="1024" />

    
    <glyph glyph-name="hot" unicode="&#59222;" d="M890.059904 352.19949C845.890699 458.956706 840.554889 548.495155 857.396326 618.42714 859.144623 625.686731 860.991676 631.977679 862.858846 637.425182 863.763607 640.064841 865.906573 645.659889 866.16406 646.532651L880.890349 696.448108 833.062903 675.930997C832.106692 675.5208 830.618069 674.894716 827.426684 673.550492 824.667648 672.380966 822.310677 671.354022 819.868514 670.244809 813.291441 667.257545 807.049466 664.090938 800.697749 660.412845 784.089623 650.795565 768.486253 638.656896 753.86285 623.033596 727.630498 595.007563 706.526618 557.766355 691.78157 509.713231 675.041103 455.157161 671.516484 411.46006 673.004574 347.939834 673.477918 327.734769 673.463923 322.197583 672.83965 318.324215 673.779618 324.156339 684.455526 333.678199 696.104608 329.195676 693.056849 330.368442 685.695898 339.012828 676.314007 361.368339 660.550914 398.92921 646.834249 460.170272 636.817284 549.350468 625.445924 650.588768 630.103925 734.728052 644.646978 801.338628 647.677924 815.221065 650.899934 827.082435 654.086773 836.904609 655.91465 842.538316 657.254607 846.094657 657.880284 847.554385L678.645286 896 628.243642 880.578031C617.409833 877.263087 599.94569 869.52239 578.105438 855.845223 542.547644 833.577626 507.199569 802.385036 474.400401 760.836776 447.596676 726.883228 423.611383 687.30061 403.118547 641.701619 378.907516 587.829195 363.003277 542.798944 353.158029 503.238462 349.274261 487.632585 346.433259 473.323627 344.1945 458.925156 343.334411 453.39353 342.592734 448.063234 341.804612 441.911844 341.502524 439.553997 340.356619 430.329551 340.073506 428.145504 337.596047 409.033293 335.848224 404.35337 329.235273 398.312868 336.081933 404.566848 343.232634 404.098227 346.608002 402.086756 344.852318 403.133013 341.598345 406.493651 337.991853 411.887149 327.030897 428.279226 317.980358 454.883162 313.690598 489.339595 311.250185 508.941598 310.203772 539.08627 310.370048 576.545325 310.480474 601.422138 311.113088 628.122479 312.099068 654.977888 312.481453 665.393013 312.891081 675.105466 313.30045 683.849175 313.545346 689.079919 313.735044 692.813105 313.84201 694.783403L317.55517 763.179488 271.360516 712.604139C270.467691 711.626645 268.852992 709.837042 266.618705 707.326295 262.927895 703.178805 258.823678 698.493751 254.407949 693.361469 241.78797 678.693606 229.164348 663.340425 217.341267 648.004036 211.724185 640.717803 206.411389 633.591345 201.450577 626.663838 176.017063 591.147305 156.617347 555.402528 138.122768 512.155497 90.841957 401.595812 76.97672 299.648706 99.261816 188.134893 126.80821 50.293739 188.553235-37.644222 278.8297-84.690336 344.19104-118.752337 408.837235-128 507.940695-128 525.713007-128 557.977207-125.567138 590.857378-120.462159 641.152493-112.653331 687.496192-99.789323 726.063273-80.591044 738.155853-74.571488 743.07901-59.888702 737.059454-47.796122 731.039898-35.703543 716.357111-30.780384 704.264531-36.79994 670.855859-53.430419 629.092954-65.022897 583.352478-72.12457 552.984316-76.839535 523.228215-79.083275 507.940695-79.083275 416.16215-79.083275 357.934257-70.753754 301.436271-41.310746 224.830174-1.388723 171.977796 73.88423 147.230072 197.720945 126.99711 298.965952 139.514783 391.004811 183.099329 492.921284 200.282663 533.10215 218.020237 565.784358 241.22153 598.183718 245.831691 604.621559 250.802959 611.289899 256.082244 618.137961 267.31885 632.713596 279.402035 647.409487 291.488864 661.457681 298.732051 669.876243 304.338773 676.176713 307.478705 679.614406L264.997214 697.435142C264.883874 695.347445 264.688038 691.493511 264.43725 686.13688 264.020474 677.234965 263.603959 667.359281 263.215279 656.772625 262.21142 629.430212 261.566827 602.224414 261.453805 576.762458 261.278897 537.358818 262.385015 505.49418 265.148621 483.296209 276.058157 395.668083 322.627019 326.024497 362.226031 362.195618 379.341732 377.829698 384.756649 392.328523 388.584361 421.857186 397.932742 493.974714 407.332926 531.746825 447.736538 621.64966 466.587287 663.594818 488.484326 699.731218 512.795234 730.526996 542.034492 767.565749 573.156162 795.028785 604.068111 814.386984 614.696751 821.043029 624.472062 826.201428 633.124687 830.036563 638.02329 832.207788 641.258688 833.404991 642.556233 833.802016L612.91959 866.825663C608.658554 856.884484 602.686705 838.478616 596.856038 811.772799 581.186705 740.003594 576.231674 650.498985 588.206246 543.890345 607.295279 373.942261 638.819345 298.82557 678.537329 283.542234 701.302332 274.782345 717.731637 289.435669 721.133156 310.5407 722.475759 318.870999 722.489387 324.263403 721.907881 349.085491 720.532565 407.791853 723.691247 446.952173 738.546223 495.36355 751.151827 536.44438 768.544047 567.135763 789.576147 589.605967 809.230566 610.60429 821.725461 617.839716 852.347733 630.976117L842.705318 653.453557 819.246577 660.374464C822.235501 670.505564 813.450321 644.87463 809.839253 629.880119 790.647573 550.189047 796.611315 450.1135 844.8591 333.498332 883.105728 241.056017 874.587669 126.064924 824.002925 61.397129 815.680378 50.757545 817.558709 35.3857 828.198295 27.063153 838.837879 18.740608 854.209724 20.61894 862.532269 31.258524 924.762731 110.814263 934.658528 244.404363 890.059904 352.19949Z"  horiz-adv-x="1024" />

    
    <glyph glyph-name="xuanzhong" unicode="&#58886;" d="M512 832C264.576 832 64 631.424 64 384s200.576-448 448-448 448 200.576 448 448S759.424 832 512 832z m271.529-719.529c-35.286-35.287-76.359-62.983-122.078-82.321C614.15 10.144 563.868 0 512 0c-51.868 0-102.15 10.144-149.451 30.15-45.719 19.337-86.792 47.034-122.078 82.321-35.287 35.286-62.983 76.359-82.321 122.078C138.144 281.85 128 332.132 128 384s10.144 102.15 30.15 149.451c19.337 45.719 47.034 86.792 82.321 122.078 35.286 35.287 76.359 62.983 122.078 82.321C409.85 757.856 460.132 768 512 768c51.868 0 102.15-10.144 149.451-30.15 45.719-19.337 86.792-47.034 122.078-82.321 35.287-35.286 62.983-76.359 82.321-122.078C885.856 486.15 896 435.868 896 384s-10.144-102.15-30.15-149.451c-19.338-45.718-47.034-86.792-82.321-122.078zM707.576 533.474L448.465 274.363 316.424 406.404c-12.497 12.497-32.758 12.497-45.255 0s-12.497-32.758 0-45.255l154.668-154.668c6.249-6.249 14.438-9.373 22.627-9.373s16.379 3.124 22.627 9.373L752.83 488.219c12.497 12.497 12.497 32.758 0 45.255-12.496 12.497-32.758 12.497-45.254 0z"  horiz-adv-x="1024" />

    
    <glyph glyph-name="airplane_icon" unicode="&#59043;" d="M987.439394 859.411756c-48.774086 48.815047-128.197098 48.753605-176.981424 0L687.032806 736.007072 195.103706 841.020351a28.385842 28.385842 0 0 1-26.061316-7.710872l-76.453354-76.453354a28.437043 28.437043 0 0 1 7.393426-45.558662l374.914304-187.395711L275.468817 324.361162 61.448579 366.008066a28.191278 28.191278 0 0 1-25.600507-7.792794L8.342888 330.751048a28.437043 28.437043 0 0 1 5.273704-44.391279l166.843624-101.982179 131.965493-131.934772 101.951458-166.833384a28.437043 28.437043 0 0 1 20.920734-13.414665 27.2799 27.2799 0 0 1 3.358787-0.194564 28.457523 28.457523 0 0 1 20.111758 8.335525l27.443744 27.443743a28.437043 28.437043 0 0 1 7.803034 25.600507l-41.636664 214.071439 199.479149 199.438189 187.467392-374.914304a28.437043 28.437043 0 0 1 45.558662-7.393426l76.453354 76.453354a28.406322 28.406322 0 0 1 7.690392 26.071556L864.01423 559.035888l123.425164 123.425164a125.278641 125.278641 0 0 1 0 176.950704zM947.226118 722.684568L812.843937 588.322868a28.437043 28.437043 0 0 1-7.690392-26.061316L910.156584 70.342692l-37.612265-37.581544L685.076927 407.63449a28.437043 28.437043 0 0 1-45.558662 7.393427L401.423311 176.932962a28.416563 28.416563 0 0 1-7.803035-25.539065l35.062454-180.073966-69.479775 113.666251a28.344881 28.344881 0 0 1-4.167763 5.273704L218.308005 227.028034a27.709989 27.709989 0 0 1-5.273704 4.157523L99.337329 300.655092l180.012525-35.011253a28.324401 28.324401 0 0 1 25.600507 7.803034L543.045315 511.541828a28.437043 28.437043 0 0 1-7.383186 45.517701L160.778546 744.547401l37.612265 37.612265 491.888139-105.02352a28.672568 28.672568 0 0 1 26.061316 7.710873L850.681486 819.20872A68.260168 68.260168 0 0 0 947.226118 722.684568z"  horiz-adv-x="1024" />

    
    <glyph glyph-name="qianbao" unicode="&#58895;" d="M748.923 846.49H275.077c-131.133 0-237.821-106.689-237.821-237.822v-473.846C37.256 3.689 143.944-103 275.077-103h473.846c131.133 0 237.822 106.689 237.822 237.822V608.668c0 131.133-106.689 237.822-237.822 237.822z m0-904.633H275.077c-106.404 0-192.965 86.561-192.965 192.965V608.668c0 106.404 86.561 192.965 192.965 192.965h473.846c106.404 0 192.965-86.561 192.965-192.965v-115.965H557.799c-49.479 0-89.714-40.246-89.714-89.713v-120.467c0-49.467 40.235-89.713 89.714-89.713h384.089v-57.988c0-106.404-86.561-192.965-192.965-192.965z m192.965 505.989v-210.18H557.799c-24.729 0-44.857 20.119-44.857 44.857V402.99c0 24.738 20.129 44.855 44.857 44.855h384.089zM646.002 342.757m-44.856 0a44.856 44.856 0 1 1 89.712 0 44.856 44.856 0 1 1-89.712 0Z"  horiz-adv-x="1024" />

    
    <glyph glyph-name="fx" unicode="&#58904;" d="M1017.173333 308.906667c10.24-17.066667 6.826667-37.546667-6.826666-47.786667l-167.253334-119.466667c-3.413333 0-6.826667-3.413333-6.826666-3.413333h-6.826667-3.413333-3.413334c-3.413333 0-6.826667 0-10.24 3.413333h-3.413333l-10.24 10.24c0 3.413333-3.413333 3.413333-3.413333 6.826667L716.8 349.866667c-6.826667 17.066667 0 37.546667 20.48 47.786666 17.066667 6.826667 37.546667 0 47.786667-20.48l51.2-119.466666c17.066667 44.373333 27.306667 92.16 27.306666 139.946666 0 215.04-174.08 389.12-389.12 389.12-228.693333-3.413333-402.773333-177.493333-402.773333-395.946666 0-215.04 174.08-389.12 389.12-389.12 71.68 0 139.946667 20.48 197.973333 54.613333 3.413333 0 3.413333 0 6.826667 3.413333 17.066667 10.24 30.72 20.48 44.373333 30.72 13.653333 13.653333 37.546667 10.24 51.2-3.413333 13.653333-13.653333 10.24-37.546667-3.413333-51.2-17.066667-13.653333-37.546667-27.306667-58.026667-40.96-3.413333-3.413333-6.826667-3.413333-10.24-3.413333-68.266667-40.96-146.773333-61.44-228.693333-61.44C208.213333-69.973333 0 138.24 0 390.826667 0 646.826667 208.213333 855.04 460.8 855.04S921.6 646.826667 921.6 390.826667c0-40.96-6.826667-81.92-17.066667-122.88l61.44 44.373333c17.066667 13.653333 40.96 10.24 51.2-3.413333z m-419.84 235.52l-105.813333-102.4v-13.653334h71.68c20.48 0 34.133333-17.066667 34.133333-34.133333 0-20.48-17.066667-34.133333-34.133333-34.133333h-71.68v-34.133334h71.68c20.48 0 34.133333-17.066667 34.133333-34.133333 0-20.48-17.066667-34.133333-34.133333-34.133333h-71.68V179.2c0-20.48-17.066667-34.133333-34.133333-34.133333-20.48 0-34.133333 17.066667-34.133334 34.133333v75.093333h-71.68c-20.48 0-34.133333 17.066667-34.133333 34.133334 0 20.48 17.066667 34.133333 34.133333 34.133333h71.68v34.133333h-71.68c-20.48 0-34.133333 17.066667-34.133333 34.133334 0 20.48 17.066667 34.133333 34.133333 34.133333h71.68v20.48l-98.986666 95.573333c-13.653333 13.653333-13.653333 37.546667 0 51.2 13.653333 13.653333 37.546667 13.653333 51.2 0l88.746666-85.333333 88.746667 85.333333c13.653333 13.653333 37.546667 13.653333 51.2 0 6.826667-10.24 6.826667-34.133333-6.826667-47.786666z"  horiz-adv-x="1024" />

    
    <glyph glyph-name="edit" unicode="&#58937;" d="M848 474.8c-16.6 0-30-13.4-30-30V126c0-38.6-31.4-70-70-70H272.1c-38.6 0-70 31.4-70 70V601.2c0 38.6 31.4 70 70 70h317.7c16.6 0 30 13.4 30 30s-13.4 30-30 30H272.1c-71.7 0-130.1-58.3-130.1-129.9v-475.2c0-71.6 58.4-129.9 130.1-129.9h475.8c71.7 0 130.1 58.3 130.1 129.9V444.8c0 16.6-13.4 30-30 30zM443.7 323.5c11.7-11.7 30.8-11.7 42.4 0l383.4 383.4c11.7 11.7 11.7 30.8 0 42.4-11.7 11.7-30.8 11.7-42.4 0L443.7 365.9c-11.7-11.7-11.7-30.8 0-42.4z"  horiz-adv-x="1024" />

    
    <glyph glyph-name="tubiaozhizuomoban-" unicode="&#58921;" d="M808 394.45a49.71 49.71 0 0 1-39.48 19.3H551.39a34.8 34.8 0 0 1 2.9 13.93v40a63.53 63.53 0 0 1 14.08-1.5c13.57 0 29.42 3.64 47 10.94 33.82 14.08 70.94 40.33 104.53 73.91s59.84 70.72 73.92 104.54c15.24 36.63 14.53 65.9-2 82.42s-45.8 17.24-82.43 2c-33.82-14.07-70.94-40.32-104.53-73.91S545 595.39 530.91 561.57a157.22 157.22 0 0 1-8.5-26.28 174.65 174.65 0 0 1-9.69 30.19c-15.87 38.11-45.47 80-83.36 117.87s-79.75 67.49-117.87 83.35c-40.92 17-73.54 16.34-91.84-2s-19-50.92-2-91.84c15.86-38.12 45.46-80 83.36-117.87s79.75-67.49 117.86-83.36c19.69-8.19 37.46-12.28 52.63-12.28a72.88 72.88 0 0 1 12.72 1.08v-32.79a34.8 34.8 0 0 1 2.9-13.93H268.55A50 50 0 0 1 220 351.44l82.15-324.67A50 50 0 0 1 350.7-11h335.69a50 50 0 0 1 48.51 37.76l82.15 324.67a49.72 49.72 0 0 1-9.05 43.02zM619 652c52.4 52.4 106.15 78.95 137.41 78.95 9.27 0 16.57-2.33 21.26-7 20.52-20.51-4-90.72-71.92-158.67-52.41-52.41-106.15-79-137.41-79-9.27 0-16.57 2.34-21.27 7C526.53 513.81 551 584 619 652zM426.6 490.14c-35.76 14.88-75.33 42.95-111.41 79s-64.16 75.65-79 111.4c-13.51 32.48-14.37 58-2.35 70 5.63 5.63 14.22 8.43 25.11 8.43 12.34 0 27.64-3.61 44.9-10.79 35.75-14.88 75.32-43 111.41-79s64.15-75.65 79-111.41c13.52-32.47 14.38-58 2.36-70s-37.55-11.15-70.02 2.37z m77.65-62.46V468.3a44.27 44.27 0 0 1 6.5 5.34 47.18 47.18 0 0 1 12.16 21.82 41.73 41.73 0 0 1 10-16.31c0.45-0.45 0.92-0.88 1.39-1.31v-50.16a15 15 0 0 0-9.43-13.93h-11.19a15 15 0 0 0-9.43 13.93z m293.41-71.34l-82.15-324.66A30 30 0 0 0 686.39 9H350.7a30 30 0 0 0-29.12 22.67l-82.15 324.67a30 30 0 0 0 29.12 37.41h242.06a34.95 34.95 0 0 1 17.32 0h240.61a30 30 0 0 0 29.12-37.41z"  horiz-adv-x="1024" />

    
    <glyph glyph-name="lollipop" unicode="&#58986;" d="M172.7 211.3c-5.4 0-10.7 2.4-14.2 6.9-8.7 11.2-16.9 23-24.3 35.1-5.2 8.5-2.5 19.6 6 24.7 8.5 5.2 19.6 2.5 24.7-6 6.7-10.9 14-21.6 21.9-31.7 6.1-7.8 4.7-19.1-3.1-25.3-3.3-2.5-7.2-3.7-11-3.7zM450.3 75.6c-86.4 0-169.7 30-236.2 85.3-7.6 6.4-8.7 17.7-2.3 25.3 6.4 7.6 17.7 8.7 25.3 2.3 133.4-111 326.6-102 449.5 20.9 63.1 63.1 97.8 147 97.8 236.2 0 89.2-34.7 173.1-97.8 236.2-63.1 63.1-147 97.8-236.2 97.8-89.2 0-173.1-34.7-236.2-97.8-73.5-73.5-108.2-175-95.2-278.3 2.8-21.8 7.7-43.4 14.6-64.1 3.2-9.4-1.9-19.6-11.4-22.8-9.4-3.2-19.6 1.9-22.8 11.4-7.7 23-13.1 46.9-16.2 71-6.9 54.8-1.4 111.4 16 163.7 18.2 54.8 48.3 103.5 89.5 144.6 35.3 35.3 76.5 62.7 122.4 81.3 44.3 18 91.2 27.1 139.2 27.1 48 0 94.9-9.1 139.2-27.1 45.9-18.6 87.1-46 122.4-81.3 35.3-35.3 62.7-76.5 81.3-122.4 18-44.3 27.1-91.2 27.1-139.2 0-48-9.1-94.9-27.1-139.2-18.6-45.9-46-87.1-81.3-122.4-65.7-65.7-152.9-104-245.6-108-5.2-0.4-10.6-0.5-16-0.5zM511 187.9c-64.1 0-125.3 22.8-174.1 65.3-53.6 46.6-85.9 111.3-90.9 182.2-4 57.7 14.6 113.5 52.6 157.1 37.9 43.6 90.6 69.9 148.2 73.9 97.2 6.8 181.8-66.8 188.6-164 5.6-79.8-54.8-149.2-134.5-154.8-31.9-2.2-62.7 8.1-86.8 29-24.1 21-38.6 50-40.8 81.9-1.9 26.5 6.7 52 24.1 72.1s41.5 32.1 68 33.9c45.7 3.2 85.4-31.4 88.6-77 0.7-9.9-6.8-18.5-16.7-19.2-9.9-0.7-18.5 6.8-19.2 16.7-1.8 25.9-24.3 45.4-50.2 43.6-16.9-1.2-32.3-8.9-43.3-21.6-11.1-12.8-16.5-29.1-15.4-45.9 1.6-22.3 11.7-42.6 28.6-57.3s38.4-21.9 60.7-20.3c60 4.2 105.3 56.4 101.1 116.3-5.4 77.4-72.8 136-150.2 130.6-48.1-3.4-92-25.2-123.6-61.6-31.6-36.4-47.2-82.9-43.8-131 4.3-61.3 32.2-117.2 78.6-157.6 46.4-40.3 105.7-60.1 167-55.9 120 8.4 221.2 87.8 257.8 202.3 3 9.5 13.2 14.7 22.6 11.7 9.5-3 14.7-13.2 11.7-22.6-19.8-61.8-57.1-115.9-108-156.5-52.1-41.6-114.9-66.1-181.6-70.7-6.5-0.4-12.8-0.6-19.1-0.6zM925.6-47.6c-4.6 0-9.2 1.8-12.7 5.3L686.6 184c-7 7-7 18.4 0 25.5 7 7 18.4 7 25.5 0l226.3-226.3c7-7 7-18.4 0-25.5-3.6-3.5-8.2-5.3-12.8-5.3z"  horiz-adv-x="1024" />

    
    <glyph glyph-name="gouwucheman" unicode="&#58880;" d="M346.112 89.08799999999997q19.456 0 36.864-7.168t30.208-19.968 20.48-30.208 7.68-36.864-7.68-36.864-20.48-30.208-30.208-20.48-36.864-7.68q-20.48 0-37.888 7.68t-30.208 20.48-20.48 30.208-7.68 36.864 7.68 36.864 20.48 30.208 30.208 19.968 37.888 7.168zM772.096 87.03999999999996q19.456 0 37.376-7.168t30.72-19.968 20.48-30.208 7.68-36.864-7.68-36.864-20.48-30.208-30.72-20.48-37.376-7.68-36.864 7.68-30.208 20.48-20.48 30.208-7.68 36.864 7.68 36.864 20.48 30.208 30.208 19.968 36.864 7.168zM944.128 668.672q28.672 0 44.544-7.68t22.528-18.944 6.144-24.064-3.584-22.016-13.312-37.888-22.016-62.976-23.552-68.096-18.944-53.248q-13.312-40.96-33.28-56.832t-49.664-15.872l-35.84 0-65.536 0-86.016 0-96.256 0-253.952 0 14.336-92.16 517.12 0q49.152 0 49.152-41.984 0-20.48-9.728-35.328t-38.4-14.848l-49.152 0-94.208 0-118.784 0-119.808 0-99.328 0-55.296 0q-20.48 0-34.304 9.216t-23.04 24.064-14.848 32.256-8.704 32.768q-1.024 6.144-5.632 29.696t-11.264 58.88-14.848 78.848-16.384 87.552q-19.456 103.424-44.032 230.4l-76.8 0q-15.36 0-25.6 7.68t-16.896 18.432-9.216 23.04-2.56 22.528q0 20.48 13.824 33.792t37.376 13.312l21.504 0 21.504 0 25.6 0 34.816 0q20.48 0 32.768-6.144t19.456-15.36 10.24-19.456 5.12-17.408q2.048-8.192 4.096-23.04t4.096-30.208q3.072-18.432 6.144-38.912l700.416 0zM867.328 701.44l-374.784 0 135.168 135.168q23.552 23.552 51.712 24.064t51.712-23.04z"  horiz-adv-x="1024" />

    
    <glyph glyph-name="menu" unicode="&#58939;" d="M170.688 298.688a85.312 85.312 0 1 0 0 170.624 85.312 85.312 0 0 0 0-170.624z m341.312 0a85.312 85.312 0 1 0 0 170.624 85.312 85.312 0 0 0 0-170.624z m341.312 0a85.312 85.312 0 1 0 0 170.624 85.312 85.312 0 0 0 0-170.624z"  horiz-adv-x="1024" />

    
    <glyph glyph-name="gouwuche1" unicode="&#58881;" d="M357.44 129.60000000000002q18.24 0 34.56-6.72t28.8-18.72 19.2-28.32 6.72-34.56-6.72-34.56-19.2-28.32-28.8-19.2-34.56-7.2q-19.2 0-35.04 7.2t-28.32 19.2-19.2 28.32-6.72 34.56 6.72 34.56 19.2 28.32 28.32 18.72 35.04 6.72zM756.8 127.67999999999995q18.24 0 35.04-6.72t28.8-18.72 19.2-28.32 7.2-34.56-7.2-34.56-19.2-28.32-28.8-19.2-35.04-7.2-34.56 7.2-28.32 19.2-19.2 28.32-7.2 34.56 7.2 34.56 19.2 28.32 28.32 18.72 34.56 6.72zM918.08 672.96q26.88 0 41.76-7.2t21.12-17.76 5.76-22.56-3.36-20.64-12-35.52-20.64-59.04-22.56-63.84-16.8-49.92q-12.48-38.4-31.68-53.28t-47.04-14.88l-32.64 0-62.4 0-81.6 0-89.28 0-238.08 0 14.4-86.4 483.84 0q46.08 0 46.08-39.36 0-19.2-9.12-33.12t-36-13.92l-46.08 0-89.28 0-110.4 0-112.32 0-92.16 0-52.8 0q-19.2 0-32.16 8.64t-21.6 22.56-13.92 30.24-8.16 30.72q-0.96 5.76-5.28 27.84t-10.56 55.2-13.92 73.92-15.36 82.08q-18.24 96.96-41.28 216l-72 0q-14.4 0-24 7.2t-15.84 17.28-8.64 21.6-2.4 21.12q0 19.2 12.96 31.68t35.04 12.48l21.12 0 19.2 0 24 0 32.64 0q19.2 0 30.72-5.76t18.24-14.4 9.6-18.24 4.8-16.32q1.92-7.68 3.84-21.6t3.84-28.32q2.88-17.28 5.76-36.48l656.64 0z"  horiz-adv-x="1024" />

    
    <glyph glyph-name="caidan" unicode="&#58902;" d="M353.8 448.7h-196c-51.7 0-93.8 42.1-93.8 93.8v196c0 51.7 42.1 93.8 93.8 93.8h196c51.7 0 93.8-42.1 93.8-93.8v-196.1c-0.1-51.7-42.1-93.7-93.8-93.7zM353.8-50.1h-196C106-50.1 64-8 64 43.7V239.8c0 51.7 42.1 93.8 93.8 93.8h196c51.7 0 93.8-42.1 93.8-93.8v-196.1c-0.1-51.7-42.1-93.8-93.8-93.8zM852.6 448.7h-196c-51.7 0-93.8 42.1-93.8 93.8v196c0 51.7 42.1 93.8 93.8 93.8h196c51.7 0 93.8-42.1 93.8-93.8v-196.1c-0.1-51.7-42.1-93.7-93.8-93.7zM754.5-63.8c-25 0-48.6 9.8-66.3 27.5L576.5 75.4c-36.6 36.6-36.6 96 0 132.6l111.7 111.7c17.7 17.7 41.3 27.5 66.3 27.5s48.6-9.8 66.3-27.5L932.5 208c36.6-36.6 36.6-96 0-132.6L820.8-36.3c-17.7-17.7-41.2-27.5-66.3-27.5z"  horiz-adv-x="1024" />

    
    <glyph glyph-name="search" unicode="&#58903;" d="M706.14 246.71400000000006L915.664 36.92999999999995a8 8 0 0 0 0-11.307l-45.216-45.27a8 8 0 0 0-11.32 0l-209.393 209.65c-57.193-45.261-129.451-72.278-208.012-72.278C256.309 117.72500000000002 106 268.21900000000005 106 453.862 106 639.506 256.309 790 441.724 790s335.724-150.494 335.724-336.138c0-78.145-26.634-150.063-71.309-207.148z m-264.416-48.956c141.269 0 255.79 114.662 255.79 256.104 0 141.443-114.521 256.105-255.79 256.105s-255.79-114.662-255.79-256.105c0-141.442 114.521-256.104 255.79-256.104z"  horiz-adv-x="1024" />

    
    <glyph glyph-name="store" unicode="&#59247;" d="M746.666667 85.333333v202.645334a138.24 138.24 0 0 1 64-10.24V85.333333a64 64 0 0 0-64-64h-192v149.333334h-64v-149.333334h-192a64 64 0 0 0-64 64v195.712a139.050667 139.050667 0 0 1 64 0V85.333333h128v149.333334h192v-149.333334h128v202.645334z m-21.013334 618.666667a64 64 0 0 0 54.976-31.253333l101.76-170.837334-0.277333 0.021334a110.72 110.72 0 0 0-182.08-122.965334 120.298667 120.298667 0 0 0-87.765333-37.824 120.469333 120.469333 0 0 0-90.581334 40.896 120.469333 120.469333 0 0 0-90.56-40.896 120.426667 120.426667 0 0 0-87.765333 37.824 110.72 110.72 0 0 0-175.786667 133.76l85.568 157.781334A64 64 0 0 0 309.397333 704h416.256z m0-64H309.397333l-86.912-160.213333-1.493333-2.304a46.72 46.72 0 0 1 74.197333-56.384l46.314667 52.970666 48.362667-51.136c10.688-11.328 25.386667-17.792 41.258666-17.792 16.554667 0 31.829333 7.04 42.581334 19.242667l48 54.357333 47.978666-54.357333c10.752-12.202667 26.026667-19.242667 42.581334-19.242667 15.872 0 30.549333 6.464 41.216 17.749334l48.32 51.2 46.378666-52.970667a46.72 46.72 0 0 1 76.864 51.818667l-0.725333 1.429333L725.653333 640z"  horiz-adv-x="1024" />

    


  </font>
</defs>
</svg>
